<mxfile host="app.diagrams.net" modified="2023-04-23T22:33:07.687Z" agent="Mozilla/5.0 (Macintosh; Intel Mac OS X 10_15_7) AppleWebKit/605.1.15 (KHTML, like Gecko) Version/16.3 Safari/605.1.15" version="21.2.1" etag="lmc9qPcZcj_VuY-T2eNL" type="github">
  <diagram name="Страница 1" id="BH-H6SOGQfe9JpWHTjSl">
    <mxGraphModel>
      <root>
        <mxCell id="0" />
        <mxCell id="1" parent="0" />
      </root>
    </mxGraphModel>
  </diagram>
</mxfile>
